<svg id="svg" version="1.1" xmlns="http://www.w3.org/2000/svg" xmlns:xlink="http://www.w3.org/1999/xlink" width="400" height="400" viewBox="0, 0, 400,400"><g id="svgg"><path id="path0" d="M347.380 46.640 C 336.219 49.062,333.930 49.765,331.397 51.549 C 329.580 52.830,310.262 76.533,309.173 78.818 C 307.400 82.540,307.407 82.323,307.407 132.426 L 307.407 179.936 310.177 207.840 C 313.422 240.540,313.506 240.897,318.369 242.656 C 319.956 243.230,320.288 242.616,314.664 249.510 C 307.470 258.329,307.407 258.532,307.407 273.180 C 307.407 286.941,308.065 289.273,312.593 291.574 C 316.104 293.359,317.026 293.306,329.815 290.583 C 346.801 286.965,344.884 288.223,358.420 271.820 C 371.424 256.062,370.160 259.185,370.295 242.478 L 370.405 228.845 369.494 226.856 C 367.695 222.926,363.968 221.388,358.693 222.398 C 357.069 222.709,355.609 222.963,355.447 222.963 C 355.285 222.963,356.535 221.295,358.225 219.256 C 365.794 210.120,365.062 213.053,367.975 180.203 L 370.370 153.185 370.370 101.820 L 370.370 50.455 369.335 48.474 C 366.634 43.303,363.834 43.069,347.380 46.640 M360.804 53.576 C 361.454 54.164,361.481 56.220,361.481 104.194 L 361.481 154.199 359.074 181.081 C 356.604 208.665,356.511 209.305,354.858 209.972 C 353.152 210.661,341.405 212.989,340.725 212.773 C 339.684 212.442,339.700 212.570,337.199 185.741 L 334.816 160.185 334.816 109.948 C 334.815 61.727,334.842 59.678,335.496 58.870 C 336.077 58.154,337.869 57.661,347.626 55.539 C 360.921 52.647,359.939 52.793,360.804 53.576 M279.551 119.809 C 272.683 121.292,266.641 122.612,266.125 122.741 L 265.185 122.977 265.185 130.377 C 265.185 136.567,265.272 137.778,265.718 137.778 C 266.011 137.778,267.364 137.520,268.724 137.204 C 270.085 136.888,271.263 136.695,271.341 136.773 C 271.420 136.852,271.442 157.298,271.390 182.208 L 271.296 227.499 260.261 177.546 C 254.191 150.072,249.233 127.301,249.242 126.944 C 249.252 126.588,249.218 126.297,249.167 126.299 C 249.116 126.300,244.410 127.300,238.710 128.521 C 233.010 129.742,228.218 130.741,228.062 130.741 C 227.906 130.741,227.778 134.161,227.778 138.340 L 227.778 145.940 228.796 145.712 C 229.356 145.586,230.398 145.334,231.111 145.151 C 231.824 144.969,232.782 144.818,233.241 144.817 L 234.074 144.815 234.074 220.340 L 234.074 295.865 232.315 296.237 C 231.347 296.441,229.931 296.724,229.167 296.864 L 227.778 297.119 227.778 304.711 L 227.778 312.303 228.611 312.095 C 229.069 311.981,235.028 310.705,241.852 309.259 C 248.676 307.814,254.551 306.544,254.907 306.439 C 255.803 306.173,255.917 291.481,255.023 291.481 C 254.730 291.481,253.377 291.740,252.016 292.055 C 250.656 292.371,249.478 292.565,249.399 292.486 C 249.321 292.407,249.299 271.914,249.350 246.945 L 249.444 201.547 260.342 250.866 C 266.335 277.992,271.419 300.784,271.638 301.516 L 272.037 302.847 282.500 300.625 L 292.963 298.402 292.963 290.861 L 292.963 283.319 292.130 283.508 C 289.188 284.176,287.884 284.427,287.315 284.435 C 286.700 284.444,286.667 280.605,286.667 208.929 L 286.667 133.414 289.305 132.818 C 290.756 132.490,292.172 132.222,292.453 132.222 C 292.870 132.222,292.963 130.831,292.963 124.630 C 292.963 118.782,292.857 117.046,292.500 117.075 C 292.245 117.096,286.418 118.326,279.551 119.809 M193.148 138.171 C 178.074 141.400,164.866 144.228,163.796 144.455 L 161.852 144.867 161.852 152.388 L 161.852 159.910 164.352 159.390 C 165.727 159.104,167.144 158.780,167.500 158.670 C 168.116 158.479,168.148 162.244,168.148 234.176 L 168.148 309.884 165.000 310.545 L 161.852 311.206 161.852 318.776 C 161.852 325.813,161.897 326.332,162.500 326.151 C 162.856 326.043,175.815 323.274,191.296 319.997 C 206.778 316.721,219.736 313.953,220.093 313.847 C 220.776 313.643,221.144 286.275,220.463 286.311 C 220.310 286.319,216.935 287.030,212.963 287.891 L 205.741 289.457 205.639 295.632 C 205.549 301.105,205.465 301.830,204.899 302.005 C 204.547 302.113,199.843 303.132,194.444 304.270 C 189.046 305.408,184.338 306.424,183.981 306.527 C 183.370 306.706,183.333 305.623,183.333 287.432 C 183.333 276.826,183.461 268.148,183.618 268.148 C 183.870 268.148,205.198 263.646,207.315 263.146 C 208.474 262.872,208.656 248.136,207.500 248.164 C 207.144 248.172,201.560 249.311,195.093 250.693 L 183.333 253.207 183.333 204.266 L 183.333 155.326 194.167 153.033 C 200.125 151.772,205.125 150.740,205.278 150.740 C 205.431 150.741,205.556 153.510,205.556 156.895 C 205.556 162.573,205.606 163.036,206.204 162.881 C 206.560 162.789,209.976 162.061,213.795 161.264 L 220.739 159.815 220.740 146.019 C 220.740 138.431,220.699 132.240,220.648 132.261 C 220.597 132.283,208.222 134.942,193.148 138.171 M136.667 150.168 C 128.824 151.856,116.282 154.537,108.796 156.127 L 95.185 159.019 95.185 166.571 C 95.185 173.587,95.231 174.111,95.833 173.942 C 98.136 173.296,102.649 172.525,102.865 172.741 C 103.183 173.059,95.234 324.908,94.882 325.234 C 94.743 325.362,93.338 325.748,91.759 326.092 L 88.889 326.717 88.889 334.245 L 88.889 341.773 90.278 341.464 C 91.042 341.293,96.833 340.061,103.148 338.726 C 109.463 337.391,115.005 336.211,115.463 336.105 C 116.293 335.912,116.296 335.886,116.296 328.386 L 116.296 320.860 113.333 321.503 L 110.370 322.146 110.371 320.240 C 110.372 317.467,112.213 283.589,112.372 283.431 C 112.620 283.182,134.053 278.744,134.204 278.910 C 134.404 279.130,136.384 316.332,136.205 316.511 C 136.128 316.588,134.742 316.953,133.125 317.322 L 130.185 317.991 130.085 325.477 C 130.030 329.594,130.113 332.957,130.270 332.950 C 130.427 332.943,136.639 331.638,144.074 330.049 L 157.593 327.161 157.693 319.692 C 157.754 315.122,157.656 312.222,157.439 312.222 C 157.245 312.222,155.883 312.475,154.413 312.784 C 152.944 313.093,151.666 313.271,151.573 313.178 C 151.408 313.013,143.293 163.979,143.442 163.855 C 143.484 163.820,145.310 163.417,147.500 162.958 L 151.481 162.126 151.481 154.581 C 151.481 150.432,151.356 147.051,151.204 147.069 C 151.051 147.086,144.509 148.481,136.667 150.168 M80.000 162.214 C 77.454 162.783,74.412 163.447,73.241 163.688 C 71.131 164.122,71.111 164.139,71.111 165.440 C 71.111 166.625,71.030 166.730,70.278 166.517 C 57.750 162.970,40.745 173.731,35.512 188.519 C 33.634 193.824,33.661 192.677,33.778 264.630 L 33.889 332.037 34.753 334.444 C 41.954 354.504,69.301 352.668,81.838 331.283 C 84.832 326.175,87.277 315.185,85.418 315.185 C 84.858 315.185,73.196 317.592,71.806 317.994 C 71.378 318.118,71.133 318.803,70.956 320.364 C 69.670 331.735,54.639 337.588,49.920 328.556 L 48.881 326.567 48.978 259.117 L 49.074 191.667 50.123 189.530 C 55.248 179.094,68.991 178.692,70.818 188.925 C 71.051 190.229,71.271 191.342,71.308 191.397 C 71.344 191.452,74.523 190.828,78.372 190.010 C 82.221 189.191,85.495 188.521,85.648 188.520 C 85.801 188.519,85.926 182.352,85.926 174.815 C 85.926 161.998,85.884 161.113,85.278 161.145 C 84.921 161.163,82.546 161.644,80.000 162.214 M128.303 167.870 C 128.568 169.182,133.405 261.643,133.269 262.814 L 133.148 263.862 123.161 265.987 C 117.668 267.155,113.139 268.077,113.096 268.034 C 113.010 267.948,118.063 171.439,118.228 170.023 C 118.324 169.201,122.829 167.824,127.863 167.077 C 128.012 167.055,128.210 167.412,128.303 167.870 M360.899 231.693 C 361.404 232.197,361.481 233.821,361.481 243.846 C 361.481 256.374,361.452 256.558,359.364 257.174 C 357.418 257.749,337.438 261.852,336.586 261.852 C 334.904 261.852,334.815 261.211,334.815 249.082 L 334.815 237.744 335.686 236.873 C 336.200 236.359,337.379 235.830,338.557 235.585 C 339.656 235.357,344.722 234.270,349.815 233.172 C 360.422 230.882,360.128 230.922,360.899 231.693 " stroke="none" fill="#ea6364" fill-rule="evenodd"></path><path id="path1" d="M374.259 12.994 C 366.149 14.270,25.015 87.083,22.398 88.097 C 10.957 92.530,1.975 104.063,0.372 116.379 C -0.362 122.015,0.050 368.234,0.797 370.615 C 4.282 381.723,13.756 387.884,24.958 386.326 C 31.805 385.373,374.665 312.290,377.602 311.157 C 387.595 307.301,396.084 297.577,398.979 286.667 L 399.815 283.519 399.815 157.407 C 399.815 20.068,399.969 29.849,397.725 24.849 C 393.900 16.324,384.210 11.429,374.259 12.994 M364.921 44.290 C 367.278 45.093,369.481 47.374,370.183 49.738 C 370.668 51.370,370.741 58.182,370.741 101.725 L 370.741 151.835 368.348 178.788 C 365.225 213.958,366.079 210.000,360.006 217.432 C 355.800 222.580,355.667 222.905,358.033 222.248 C 363.637 220.692,368.959 223.276,370.337 228.223 C 370.654 229.359,370.749 233.528,370.668 242.778 L 370.556 255.741 369.597 257.778 C 368.511 260.086,349.454 283.409,347.156 285.242 C 344.008 287.753,343.247 287.986,326.678 291.495 C 314.852 294.000,311.269 293.235,308.503 287.617 L 307.371 285.317 307.482 272.566 L 307.593 259.815 308.735 257.407 C 309.404 255.997,311.688 252.776,314.250 249.630 C 316.655 246.676,318.777 244.061,318.967 243.819 C 319.207 243.513,318.939 243.192,318.082 242.759 C 312.918 240.156,313.257 241.587,310.000 208.704 L 307.395 182.407 307.494 131.852 L 307.593 81.296 308.889 78.778 C 310.745 75.170,329.703 52.357,332.147 50.789 C 334.651 49.183,335.033 49.073,347.934 46.279 C 360.258 43.609,362.242 43.377,364.921 44.290 M347.593 55.799 C 339.297 57.589,336.294 58.380,335.741 58.923 C 335.008 59.642,334.999 60.206,334.901 108.436 L 334.801 157.222 337.220 183.519 C 339.952 213.229,339.828 212.180,340.651 212.495 C 341.194 212.704,350.748 210.922,354.206 209.967 C 356.285 209.393,356.260 209.547,358.749 181.873 L 361.099 155.741 361.105 104.762 C 361.111 58.614,361.056 53.762,360.525 53.558 C 359.624 53.212,359.425 53.247,347.593 55.799 M280.370 63.213 C 294.494 67.069,298.889 85.090,289.277 99.737 C 274.392 122.420,244.340 117.424,245.266 92.420 C 245.946 74.054,264.262 58.816,280.370 63.213 M269.630 68.724 C 257.858 71.249,248.410 85.556,251.240 96.568 C 255.656 113.749,278.157 111.819,286.718 93.526 C 293.286 79.490,283.776 65.688,269.630 68.724 M203.767 78.020 C 204.409 78.601,204.444 79.778,204.444 100.243 C 204.444 112.128,204.522 121.852,204.617 121.852 C 204.712 121.852,212.654 120.183,222.266 118.143 C 238.533 114.690,239.803 114.473,240.612 115.003 C 242.210 116.050,241.346 119.523,239.328 120.163 C 237.586 120.716,201.999 128.148,201.094 128.148 C 198.785 128.148,198.889 129.318,198.889 103.278 L 198.889 79.573 199.972 78.490 C 201.201 77.261,202.720 77.073,203.767 78.020 M148.806 89.465 L 149.630 90.042 149.630 111.806 L 149.630 133.569 166.574 129.950 C 187.003 125.587,186.667 125.608,186.667 128.679 C 186.667 131.588,187.718 131.233,164.702 136.099 C 143.651 140.551,145.770 140.214,144.815 139.259 C 143.739 138.183,143.659 91.826,144.730 90.511 C 146.048 88.894,147.470 88.529,148.806 89.465 M131.029 93.169 C 132.299 94.059,132.173 96.330,130.788 97.496 C 129.653 98.451,130.228 98.312,106.852 103.267 L 95.000 105.779 94.900 114.186 C 94.846 118.809,94.875 122.593,94.966 122.593 C 95.058 122.593,99.082 121.754,103.909 120.729 C 113.853 118.617,114.444 118.648,114.444 121.284 C 114.444 123.992,113.711 124.350,103.857 126.454 L 95.000 128.345 94.900 136.807 L 94.801 145.269 95.641 145.062 C 96.103 144.949,104.034 143.251,113.265 141.290 C 132.067 137.296,131.852 137.309,131.852 140.173 C 131.852 143.129,132.209 143.002,111.267 147.455 C 90.903 151.785,90.942 151.778,89.937 150.869 C 88.824 149.861,88.893 103.529,90.010 102.109 C 90.988 100.865,89.677 101.207,110.926 96.644 C 132.418 92.029,129.998 92.447,131.029 93.169 M75.387 105.354 L 76.296 106.263 76.296 129.446 C 76.296 154.868,76.350 154.243,74.099 155.175 C 72.621 155.787,71.341 155.428,70.804 154.251 C 70.200 152.924,70.186 108.789,70.789 107.057 C 71.583 104.780,73.940 103.907,75.387 105.354 M38.683 113.416 C 39.682 114.843,39.538 160.094,38.529 161.749 C 37.331 163.714,34.400 163.868,33.691 162.003 C 33.071 160.373,33.224 116.164,33.854 114.656 C 34.755 112.499,37.540 111.784,38.683 113.416 M293.333 124.644 C 293.333 132.185,293.331 132.209,292.500 132.398 C 292.042 132.502,290.667 132.801,289.444 133.062 L 287.222 133.536 287.129 208.952 L 287.035 284.369 289.997 283.726 C 291.627 283.372,293.044 283.167,293.146 283.270 C 293.749 283.873,293.312 298.475,292.685 298.667 C 291.592 299.001,272.617 302.963,272.109 302.963 C 271.776 302.963,268.267 287.762,260.538 252.836 L 249.444 202.710 249.350 247.341 C 249.299 271.888,249.327 292.043,249.414 292.130 C 249.501 292.217,250.853 292.023,252.418 291.700 C 253.984 291.376,255.330 291.111,255.410 291.111 C 255.490 291.111,255.556 294.599,255.556 298.863 L 255.556 306.614 253.426 307.055 C 252.255 307.298,246.046 308.618,239.630 309.988 C 233.213 311.358,227.838 312.411,227.685 312.328 C 227.175 312.053,227.353 297.486,227.870 297.151 C 228.125 296.987,229.500 296.602,230.926 296.296 L 233.519 295.741 233.612 220.324 L 233.705 144.906 231.390 145.403 C 230.116 145.676,228.699 145.906,228.241 145.913 L 227.407 145.926 227.407 138.358 C 227.407 131.474,227.466 130.773,228.056 130.591 C 228.412 130.481,232.954 129.477,238.148 128.359 C 243.343 127.242,247.926 126.229,248.333 126.109 C 249.036 125.902,249.653 128.505,260.185 176.120 L 271.296 226.350 271.390 181.819 C 271.442 157.326,271.401 137.204,271.300 137.103 C 271.142 136.944,269.359 137.259,266.019 138.035 L 265.185 138.228 265.185 130.437 L 265.185 122.645 267.130 122.235 C 268.199 122.009,274.407 120.688,280.926 119.299 C 287.444 117.909,292.903 116.842,293.056 116.927 C 293.208 117.011,293.333 120.484,293.333 124.644 M68.159 129.457 C 69.113 130.607,68.477 133.303,67.075 134.054 C 66.379 134.426,44.048 139.259,43.023 139.259 C 40.707 139.259,40.454 135.230,42.694 134.013 C 43.805 133.410,64.230 128.987,66.158 128.932 C 67.125 128.905,67.861 129.098,68.159 129.457 M221.111 146.074 L 221.111 159.926 218.426 160.512 C 216.949 160.835,213.449 161.583,210.648 162.174 L 205.556 163.248 205.556 157.055 L 205.556 150.861 197.130 152.654 C 192.495 153.641,187.495 154.714,186.019 155.039 L 183.333 155.630 183.333 204.303 L 183.333 252.977 184.167 252.780 C 187.058 252.098,207.677 247.782,208.056 247.780 C 208.411 247.778,208.519 249.562,208.519 255.472 L 208.519 263.166 196.389 265.720 C 189.718 267.125,184.051 268.347,183.796 268.436 C 183.434 268.563,183.333 272.709,183.333 287.487 L 183.333 306.377 184.167 306.184 C 184.625 306.078,189.625 305.021,195.278 303.835 L 205.556 301.680 205.556 295.495 C 205.556 289.923,205.620 289.290,206.204 289.120 C 206.560 289.016,209.685 288.338,213.148 287.612 C 216.611 286.886,219.819 286.207,220.278 286.102 L 221.111 285.912 221.111 299.915 L 221.111 313.919 191.944 320.109 C 175.903 323.513,162.483 326.298,162.122 326.297 C 161.513 326.296,161.474 325.755,161.567 318.623 L 161.667 310.949 163.333 310.634 C 164.250 310.461,165.625 310.158,166.389 309.960 L 167.778 309.601 167.778 234.238 L 167.778 158.875 166.944 159.064 C 163.997 159.733,162.698 159.983,162.122 159.991 C 161.512 159.999,161.473 159.461,161.567 152.318 L 161.667 144.636 190.556 138.465 C 206.444 135.070,219.819 132.277,220.278 132.258 L 221.111 132.222 221.111 146.074 M151.852 154.637 L 151.852 162.194 150.463 162.554 C 149.699 162.753,148.056 163.109,146.813 163.347 C 145.569 163.585,144.346 163.906,144.096 164.061 C 143.688 164.313,151.282 312.375,151.731 312.935 C 151.801 313.021,153.128 312.816,154.680 312.480 C 156.232 312.143,157.648 311.957,157.825 312.066 C 158.271 312.342,158.241 326.936,157.794 327.212 C 157.599 327.332,151.558 328.681,144.368 330.209 C 137.179 331.738,131.005 333.077,130.648 333.186 C 130.045 333.369,130.000 332.841,130.000 325.595 L 130.000 317.806 131.389 317.437 C 132.153 317.233,133.486 316.956,134.352 316.820 L 135.926 316.572 135.926 314.675 C 135.925 312.392,134.109 279.160,133.980 279.066 C 133.858 278.977,112.820 283.428,112.622 283.584 C 112.448 283.721,110.397 321.602,110.554 321.777 C 110.609 321.838,111.767 321.630,113.128 321.314 C 114.488 320.999,115.841 320.741,116.134 320.741 C 116.580 320.741,116.667 321.989,116.666 328.426 L 116.666 336.111 103.055 338.987 C 95.569 340.568,89.233 341.860,88.974 341.857 C 88.606 341.853,88.525 340.184,88.604 334.168 L 88.704 326.483 91.597 325.873 C 93.188 325.538,94.579 325.174,94.687 325.066 C 94.795 324.958,96.605 291.982,98.710 251.786 C 100.814 211.591,102.631 177.345,102.749 175.685 L 102.962 172.666 99.722 173.364 C 97.940 173.747,96.106 174.151,95.648 174.260 L 94.815 174.459 94.815 166.674 C 94.815 162.392,94.856 158.879,94.907 158.868 C 103.145 156.998,151.384 146.844,151.574 146.940 C 151.727 147.018,151.852 150.481,151.852 154.637 M86.208 174.688 L 86.111 188.636 78.704 190.226 C 74.630 191.101,71.194 191.825,71.070 191.834 C 70.945 191.844,70.756 190.881,70.648 189.695 C 69.647 178.651,55.339 179.034,50.087 190.246 L 49.074 192.407 48.975 258.333 C 48.906 304.214,48.997 324.842,49.273 326.177 C 51.688 337.824,69.636 332.809,70.647 320.204 L 70.833 317.898 78.287 316.345 C 82.386 315.491,85.890 314.797,86.074 314.803 C 87.296 314.845,85.458 324.234,83.341 328.768 C 72.059 352.920,40.555 355.847,34.198 333.333 C 33.550 331.038,33.519 327.764,33.519 262.778 L 33.519 194.630 34.354 191.481 C 38.646 175.311,55.305 163.194,69.327 166.043 C 70.663 166.315,70.694 166.295,70.809 165.116 L 70.926 163.911 78.148 162.356 C 82.120 161.500,85.581 160.787,85.838 160.770 C 86.208 160.747,86.285 163.643,86.208 174.688 M122.710 168.423 L 118.568 169.351 118.356 171.620 C 118.006 175.374,113.289 267.486,113.438 267.636 C 113.515 267.712,118.021 266.830,123.452 265.675 L 133.327 263.576 133.128 261.140 C 132.919 258.566,128.148 169.522,128.148 168.187 C 128.148 167.229,128.010 167.235,122.710 168.423 M347.407 233.916 C 338.420 235.858,336.366 236.417,335.833 237.068 C 334.819 238.307,334.843 260.902,335.859 261.445 C 336.347 261.707,339.632 261.149,347.803 259.416 C 361.410 256.531,360.325 256.866,360.960 255.347 C 361.606 253.800,361.728 233.375,361.098 232.198 C 360.541 231.157,359.665 231.267,347.407 233.916 " stroke="none" fill="#543b64" fill-rule="evenodd"></path><path id="path2" d="M272.037 62.824 C 268.024 63.615,266.929 63.908,265.000 64.707 C 242.823 73.900,238.190 105.641,257.977 112.823 C 278.689 120.341,302.005 92.368,291.589 72.499 C 288.076 65.799,279.210 61.412,272.037 62.824 M280.594 69.622 C 291.691 75.079,291.664 92.375,280.544 102.539 C 270.713 111.524,257.094 110.392,252.223 100.186 C 244.373 83.738,264.722 61.816,280.594 69.622 M201.581 77.690 C 199.185 78.088,199.259 77.262,199.259 103.357 C 199.259 127.821,199.278 128.148,200.666 128.148 C 202.911 128.148,239.594 119.804,240.249 119.144 C 241.537 117.847,241.540 115.735,240.255 115.149 C 239.545 114.826,209.993 120.653,205.093 122.083 C 204.481 122.262,204.444 121.081,204.444 100.927 C 204.444 87.086,204.311 79.332,204.066 78.873 C 203.581 77.968,202.632 77.516,201.581 77.690 M145.377 90.145 L 144.444 91.077 144.444 114.909 C 144.444 139.984,144.421 139.631,146.093 139.628 C 147.210 139.626,183.334 131.915,184.583 131.412 C 187.101 130.397,186.991 126.667,184.443 126.667 C 183.840 126.667,175.902 128.250,166.803 130.185 C 157.705 132.120,150.118 133.704,149.945 133.704 C 149.772 133.704,149.627 124.162,149.624 112.500 C 149.620 96.211,149.511 91.082,149.153 90.370 C 148.476 89.027,146.607 88.915,145.377 90.145 M110.185 97.063 C 92.899 100.760,91.226 101.184,90.463 102.054 L 89.630 103.004 89.630 126.679 L 89.630 150.353 90.463 150.895 C 91.489 151.561,128.694 143.878,130.347 142.658 C 132.278 141.233,131.969 138.129,129.899 138.161 C 129.445 138.167,121.407 139.808,112.037 141.807 L 95.000 145.441 94.900 136.925 C 94.846 132.241,94.882 128.328,94.981 128.229 C 95.080 128.130,99.042 127.225,103.784 126.218 C 113.809 124.091,114.323 123.813,114.117 120.640 C 114.014 119.064,104.431 120.185,95.463 122.822 C 94.859 123.000,94.815 122.423,94.815 114.291 L 94.815 105.570 95.648 105.376 C 96.106 105.270,103.981 103.598,113.148 101.662 C 129.230 98.263,129.851 98.101,130.833 97.027 C 132.041 95.708,132.123 94.716,131.111 93.704 C 130.128 92.721,131.568 92.490,110.185 97.063 M71.823 105.897 L 70.741 106.980 70.741 130.501 C 70.741 156.110,70.665 155.185,72.774 155.185 C 76.025 155.185,75.926 155.997,75.926 129.335 C 75.926 107.238,75.891 106.009,75.249 105.428 C 74.242 104.517,73.039 104.682,71.823 105.897 M35.446 113.184 C 34.876 113.493,34.251 114.163,34.057 114.675 C 33.487 116.175,33.591 161.564,34.167 162.311 C 35.011 163.407,36.744 163.290,37.980 162.054 L 38.889 161.145 38.889 137.445 L 38.889 113.746 38.066 113.169 C 37.062 112.466,36.767 112.468,35.446 113.184 M54.630 131.430 C 41.922 134.171,42.360 134.023,41.609 135.821 C 40.931 137.445,41.670 138.889,43.181 138.889 C 44.365 138.889,65.006 134.546,66.406 134.002 C 68.297 133.268,69.041 130.893,67.778 129.630 C 66.847 128.699,68.056 128.534,54.630 131.430 " stroke="none" fill="#fbbb6c" fill-rule="evenodd"></path><path id="path3" d="M70.545 130.556 C 70.544 143.185,70.591 148.406,70.648 142.156 C 70.705 135.907,70.705 125.574,70.648 119.193 C 70.591 112.813,70.545 117.926,70.545 130.556 M220.909 145.926 C 220.909 153.565,220.958 156.690,221.018 152.870 C 221.078 149.051,221.078 142.801,221.018 138.981 C 220.958 135.162,220.909 138.287,220.909 145.926 M286.848 209.074 C 286.848 250.630,286.892 267.575,286.944 246.730 C 286.997 225.885,286.997 191.885,286.944 171.174 C 286.892 150.464,286.848 167.519,286.848 209.074 M233.885 220.185 C 233.885 261.741,233.929 278.686,233.981 257.841 C 234.034 236.996,234.034 202.996,233.981 182.285 C 233.929 161.575,233.885 178.630,233.885 220.185 M151.638 154.630 C 151.639 158.907,151.692 160.607,151.758 158.406 C 151.824 156.205,151.823 152.705,151.758 150.628 C 151.692 148.551,151.638 150.352,151.638 154.630 M167.778 234.333 C 167.676 275.930,167.718 309.838,167.871 309.684 C 168.025 309.531,168.108 275.498,168.056 234.055 L 167.963 158.704 167.778 234.333 M33.514 262.778 C 33.514 299.037,33.558 313.815,33.611 295.619 C 33.664 277.422,33.664 247.755,33.611 229.693 C 33.558 211.630,33.514 226.519,33.514 262.778 M334.979 249.444 C 334.979 255.556,335.029 258.108,335.092 255.115 C 335.154 252.123,335.154 247.123,335.092 244.004 C 335.030 240.885,334.979 243.333,334.979 249.444 M220.740 299.926 L 220.925 313.889 221.023 300.208 C 221.077 292.684,220.993 286.401,220.838 286.245 C 220.683 286.090,220.639 292.246,220.740 299.926 " stroke="none" fill="#724864" fill-rule="evenodd"></path><path id="path4" d="M360.648 43.965 C 361.106 44.053,361.856 44.053,362.315 43.965 C 362.773 43.877,362.398 43.805,361.481 43.805 C 360.565 43.805,360.190 43.877,360.648 43.965 M370.550 102.037 C 370.550 129.944,370.594 141.306,370.648 127.286 C 370.702 113.265,370.702 90.432,370.648 76.545 C 370.594 62.658,370.550 74.130,370.550 102.037 M76.100 129.630 C 76.100 142.157,76.147 147.282,76.204 141.019 C 76.260 134.755,76.260 124.505,76.204 118.241 C 76.147 111.977,76.100 117.102,76.100 129.630 M94.972 166.481 C 94.972 170.759,95.026 172.459,95.091 170.258 C 95.157 168.057,95.157 164.557,95.091 162.480 C 95.025 160.403,94.971 162.204,94.972 166.481 M85.835 169.907 C 85.887 174.949,85.975 181.241,86.032 183.889 C 86.088 186.537,86.171 182.412,86.215 174.722 C 86.260 167.032,86.171 160.741,86.019 160.740 C 85.866 160.740,85.783 164.865,85.835 169.907 M143.427 165.000 C 143.431 165.815,143.507 166.105,143.595 165.644 C 143.684 165.183,143.681 164.516,143.588 164.162 C 143.495 163.808,143.423 164.185,143.427 165.000 M70.711 165.277 C 70.601 166.074,70.658 166.527,70.844 166.341 C 71.023 166.162,71.109 165.538,71.036 164.953 C 70.914 163.973,70.888 163.999,70.711 165.277 M128.234 169.259 C 128.234 169.972,128.310 170.264,128.403 169.907 C 128.497 169.551,128.497 168.968,128.403 168.611 C 128.310 168.255,128.234 168.546,128.234 169.259 M143.790 171.852 C 143.790 172.565,143.866 172.856,143.959 172.500 C 144.052 172.144,144.052 171.560,143.959 171.204 C 143.866 170.847,143.790 171.139,143.790 171.852 M117.864 175.556 C 117.864 176.269,117.940 176.560,118.033 176.204 C 118.126 175.847,118.126 175.264,118.033 174.907 C 117.940 174.551,117.864 174.843,117.864 175.556 M128.604 176.296 C 128.604 177.009,128.681 177.301,128.774 176.944 C 128.867 176.588,128.867 176.005,128.774 175.648 C 128.681 175.292,128.604 175.583,128.604 176.296 M102.679 177.778 C 102.679 178.491,102.755 178.782,102.848 178.426 C 102.941 178.069,102.941 177.486,102.848 177.130 C 102.755 176.773,102.679 177.065,102.679 177.778 M144.160 178.889 C 144.160 179.602,144.236 179.894,144.329 179.537 C 144.423 179.181,144.423 178.597,144.329 178.241 C 144.236 177.884,144.160 178.176,144.160 178.889 M117.493 182.593 C 117.493 183.306,117.570 183.597,117.663 183.241 C 117.756 182.884,117.756 182.301,117.663 181.944 C 117.570 181.588,117.493 181.880,117.493 182.593 M128.975 182.963 C 128.975 183.676,129.051 183.968,129.144 183.611 C 129.237 183.255,129.237 182.671,129.144 182.315 C 129.051 181.958,128.975 182.250,128.975 182.963 M102.308 184.815 C 102.308 185.528,102.384 185.819,102.478 185.463 C 102.571 185.106,102.571 184.523,102.478 184.167 C 102.384 183.810,102.308 184.102,102.308 184.815 M144.530 185.556 C 144.530 186.269,144.607 186.560,144.700 186.204 C 144.793 185.847,144.793 185.264,144.700 184.907 C 144.607 184.551,144.530 184.843,144.530 185.556 M117.123 189.630 C 117.123 190.343,117.199 190.634,117.292 190.278 C 117.386 189.921,117.386 189.338,117.292 188.981 C 117.199 188.625,117.123 188.917,117.123 189.630 M129.345 190.000 C 129.345 190.713,129.421 191.005,129.515 190.648 C 129.608 190.292,129.608 189.708,129.515 189.352 C 129.421 188.995,129.345 189.287,129.345 190.000 M70.741 190.534 C 70.741 191.031,70.877 191.522,71.044 191.625 C 71.211 191.728,71.275 191.322,71.187 190.721 C 70.993 189.398,70.741 189.292,70.741 190.534 M101.938 191.852 C 101.938 192.565,102.014 192.856,102.107 192.500 C 102.200 192.144,102.200 191.560,102.107 191.204 C 102.014 190.847,101.938 191.139,101.938 191.852 M144.901 192.593 C 144.901 193.306,144.977 193.597,145.070 193.241 C 145.163 192.884,145.163 192.301,145.070 191.944 C 144.977 191.588,144.901 191.880,144.901 192.593 M116.753 196.667 C 116.753 197.380,116.829 197.671,116.922 197.315 C 117.015 196.958,117.015 196.375,116.922 196.019 C 116.829 195.662,116.753 195.954,116.753 196.667 M129.723 196.852 C 129.727 197.667,129.803 197.956,129.892 197.496 C 129.980 197.035,129.977 196.368,129.884 196.014 C 129.791 195.660,129.719 196.037,129.723 196.852 M101.567 198.889 C 101.567 199.602,101.644 199.894,101.737 199.537 C 101.830 199.181,101.830 198.597,101.737 198.241 C 101.644 197.884,101.567 198.176,101.567 198.889 M145.279 199.444 C 145.283 200.259,145.359 200.549,145.447 200.088 C 145.536 199.628,145.532 198.961,145.440 198.607 C 145.347 198.253,145.274 198.630,145.279 199.444 M116.382 203.704 C 116.382 204.417,116.458 204.708,116.552 204.352 C 116.645 203.995,116.645 203.412,116.552 203.056 C 116.458 202.699,116.382 202.991,116.382 203.704 M130.086 203.704 C 130.086 204.417,130.162 204.708,130.255 204.352 C 130.348 203.995,130.348 203.412,130.255 203.056 C 130.162 202.699,130.086 202.991,130.086 203.704 M101.197 205.926 C 101.197 206.639,101.273 206.931,101.366 206.574 C 101.460 206.218,101.460 205.634,101.366 205.278 C 101.273 204.921,101.197 205.213,101.197 205.926 M145.641 206.296 C 145.641 207.009,145.718 207.301,145.811 206.944 C 145.904 206.588,145.904 206.005,145.811 205.648 C 145.718 205.292,145.641 205.583,145.641 206.296 M116.012 210.741 C 116.012 211.454,116.088 211.745,116.181 211.389 C 116.274 211.032,116.274 210.449,116.181 210.093 C 116.088 209.736,116.012 210.028,116.012 210.741 M130.456 210.741 C 130.456 211.454,130.533 211.745,130.626 211.389 C 130.719 211.032,130.719 210.449,130.626 210.093 C 130.533 209.736,130.456 210.028,130.456 210.741 M100.827 212.963 C 100.827 213.676,100.903 213.968,100.996 213.611 C 101.089 213.255,101.089 212.671,100.996 212.315 C 100.903 211.958,100.827 212.250,100.827 212.963 M146.019 213.148 C 146.023 213.963,146.099 214.253,146.188 213.792 C 146.276 213.331,146.273 212.665,146.180 212.310 C 146.088 211.956,146.015 212.333,146.019 213.148 M130.827 217.407 C 130.827 218.120,130.903 218.412,130.996 218.056 C 131.089 217.699,131.089 217.116,130.996 216.759 C 130.903 216.403,130.827 216.694,130.827 217.407 M115.641 217.778 C 115.641 218.491,115.718 218.782,115.811 218.426 C 115.904 218.069,115.904 217.486,115.811 217.130 C 115.718 216.773,115.641 217.065,115.641 217.778 M100.456 220.000 C 100.456 220.713,100.533 221.005,100.626 220.648 C 100.719 220.292,100.719 219.708,100.626 219.352 C 100.533 218.995,100.456 219.287,100.456 220.000 M146.382 220.000 C 146.382 220.713,146.458 221.005,146.552 220.648 C 146.645 220.292,146.645 219.708,146.552 219.352 C 146.458 218.995,146.382 219.287,146.382 220.000 M131.197 224.444 C 131.197 225.157,131.273 225.449,131.366 225.093 C 131.460 224.736,131.460 224.153,131.366 223.796 C 131.273 223.440,131.197 223.731,131.197 224.444 M115.271 224.815 C 115.271 225.528,115.347 225.819,115.440 225.463 C 115.534 225.106,115.534 224.523,115.440 224.167 C 115.347 223.810,115.271 224.102,115.271 224.815 M100.086 227.037 C 100.086 227.750,100.162 228.042,100.255 227.685 C 100.348 227.329,100.348 226.745,100.255 226.389 C 100.162 226.032,100.086 226.324,100.086 227.037 M146.753 227.037 C 146.753 227.750,146.829 228.042,146.922 227.685 C 147.015 227.329,147.015 226.745,146.922 226.389 C 146.829 226.032,146.753 226.324,146.753 227.037 M131.575 231.296 C 131.579 232.111,131.655 232.401,131.743 231.940 C 131.832 231.479,131.829 230.813,131.736 230.459 C 131.643 230.105,131.571 230.481,131.575 231.296 M114.908 232.037 C 114.912 232.852,114.988 233.142,115.077 232.681 C 115.165 232.220,115.162 231.553,115.069 231.199 C 114.977 230.845,114.904 231.222,114.908 232.037 M147.123 233.704 C 147.123 234.417,147.199 234.708,147.292 234.352 C 147.386 233.995,147.386 233.412,147.292 233.056 C 147.199 232.699,147.123 232.991,147.123 233.704 M99.716 234.074 C 99.716 234.787,99.792 235.079,99.885 234.722 C 99.978 234.366,99.978 233.782,99.885 233.426 C 99.792 233.069,99.716 233.361,99.716 234.074 M131.938 238.148 C 131.938 238.861,132.014 239.153,132.107 238.796 C 132.200 238.440,132.200 237.856,132.107 237.500 C 132.014 237.144,131.938 237.435,131.938 238.148 M114.538 239.074 C 114.542 239.889,114.618 240.179,114.706 239.718 C 114.795 239.257,114.792 238.591,114.699 238.236 C 114.606 237.882,114.534 238.259,114.538 239.074 M147.493 240.741 C 147.493 241.454,147.570 241.745,147.663 241.389 C 147.756 241.032,147.756 240.449,147.663 240.093 C 147.570 239.736,147.493 240.028,147.493 240.741 M99.353 241.296 C 99.357 242.111,99.433 242.401,99.521 241.940 C 99.610 241.479,99.606 240.813,99.514 240.459 C 99.421 240.105,99.349 240.481,99.353 241.296 M132.308 245.185 C 132.308 245.898,132.384 246.190,132.478 245.833 C 132.571 245.477,132.571 244.894,132.478 244.537 C 132.384 244.181,132.308 244.472,132.308 245.185 M114.167 246.111 C 114.172 246.926,114.247 247.216,114.336 246.755 C 114.425 246.294,114.421 245.628,114.329 245.273 C 114.236 244.919,114.163 245.296,114.167 246.111 M147.864 247.407 C 147.864 248.120,147.940 248.412,148.033 248.056 C 148.126 247.699,148.126 247.116,148.033 246.759 C 147.940 246.403,147.864 246.694,147.864 247.407 M98.982 248.333 C 98.986 249.148,99.062 249.438,99.151 248.977 C 99.239 248.516,99.236 247.850,99.143 247.496 C 99.051 247.142,98.978 247.519,98.982 248.333 M208.232 255.247 C 208.170 260.959,208.031 262.949,207.685 263.088 C 207.323 263.234,207.325 263.281,207.697 263.304 C 208.481 263.352,208.539 262.691,208.426 254.990 L 208.317 247.593 208.232 255.247 M132.686 252.037 C 132.690 252.852,132.766 253.142,132.855 252.681 C 132.943 252.220,132.940 251.553,132.847 251.199 C 132.754 250.845,132.682 251.222,132.686 252.037 M113.797 253.148 C 113.801 253.963,113.877 254.253,113.966 253.792 C 114.054 253.331,114.051 252.665,113.958 252.310 C 113.865 251.956,113.793 252.333,113.797 253.148 M148.234 254.444 C 148.234 255.157,148.310 255.449,148.403 255.093 C 148.497 254.736,148.497 254.153,148.403 253.796 C 148.310 253.440,148.234 253.731,148.234 254.444 M98.612 255.370 C 98.616 256.185,98.692 256.475,98.780 256.014 C 98.869 255.553,98.866 254.887,98.773 254.533 C 98.680 254.179,98.608 254.556,98.612 255.370 M133.049 258.889 C 133.049 259.602,133.125 259.894,133.218 259.537 C 133.311 259.181,133.311 258.597,133.218 258.241 C 133.125 257.884,133.049 258.176,133.049 258.889 M113.427 260.185 C 113.431 261.000,113.507 261.290,113.595 260.829 C 113.684 260.368,113.681 259.702,113.588 259.348 C 113.495 258.993,113.423 259.370,113.427 260.185 M148.612 261.296 C 148.616 262.111,148.692 262.401,148.780 261.940 C 148.869 261.479,148.866 260.813,148.773 260.459 C 148.680 260.105,148.608 260.481,148.612 261.296 M98.242 262.407 C 98.246 263.222,98.322 263.512,98.410 263.051 C 98.499 262.591,98.495 261.924,98.403 261.570 C 98.310 261.216,98.237 261.593,98.242 262.407 M112.963 267.037 C 112.963 267.648,113.101 268.148,113.269 268.148 C 113.438 268.148,113.502 267.648,113.412 267.037 C 113.323 266.426,113.185 265.926,113.106 265.926 C 113.027 265.926,112.963 266.426,112.963 267.037 M148.975 268.148 C 148.975 268.861,149.051 269.153,149.144 268.796 C 149.237 268.440,149.237 267.856,149.144 267.500 C 149.051 267.144,148.975 267.435,148.975 268.148 M97.871 269.444 C 97.875 270.259,97.951 270.549,98.040 270.088 C 98.128 269.628,98.125 268.961,98.032 268.607 C 97.940 268.253,97.867 268.630,97.871 269.444 M149.353 275.000 C 149.357 275.815,149.433 276.105,149.521 275.644 C 149.610 275.183,149.606 274.516,149.514 274.162 C 149.421 273.808,149.349 274.185,149.353 275.000 M97.501 276.481 C 97.505 277.296,97.581 277.586,97.669 277.125 C 97.758 276.665,97.755 275.998,97.662 275.644 C 97.569 275.290,97.497 275.667,97.501 276.481 M149.716 281.852 C 149.716 282.565,149.792 282.856,149.885 282.500 C 149.978 282.144,149.978 281.560,149.885 281.204 C 149.792 280.847,149.716 281.139,149.716 281.852 M97.130 283.519 C 97.135 284.333,97.210 284.623,97.299 284.162 C 97.388 283.702,97.384 283.035,97.292 282.681 C 97.199 282.327,97.126 282.704,97.130 283.519 M134.530 286.296 C 134.530 287.009,134.607 287.301,134.700 286.944 C 134.793 286.588,134.793 286.005,134.700 285.648 C 134.607 285.292,134.530 285.583,134.530 286.296 M111.945 288.704 C 111.949 289.519,112.025 289.808,112.114 289.348 C 112.202 288.887,112.199 288.220,112.106 287.866 C 112.014 287.512,111.941 287.889,111.945 288.704 M150.086 288.889 C 150.086 289.602,150.162 289.894,150.255 289.537 C 150.348 289.181,150.348 288.597,150.255 288.241 C 150.162 287.884,150.086 288.176,150.086 288.889 M96.760 290.556 C 96.764 291.370,96.840 291.660,96.929 291.199 C 97.017 290.739,97.014 290.072,96.921 289.718 C 96.828 289.364,96.756 289.741,96.760 290.556 M134.901 292.963 C 134.901 293.676,134.977 293.968,135.070 293.611 C 135.163 293.255,135.163 292.671,135.070 292.315 C 134.977 291.958,134.901 292.250,134.901 292.963 M111.575 295.741 C 111.579 296.556,111.655 296.845,111.743 296.385 C 111.832 295.924,111.829 295.257,111.736 294.903 C 111.643 294.549,111.571 294.926,111.575 295.741 M150.456 295.556 C 150.456 296.269,150.533 296.560,150.626 296.204 C 150.719 295.847,150.719 295.264,150.626 294.907 C 150.533 294.551,150.456 294.843,150.456 295.556 M96.390 297.593 C 96.394 298.407,96.470 298.697,96.558 298.236 C 96.647 297.776,96.643 297.109,96.551 296.755 C 96.458 296.401,96.386 296.778,96.390 297.593 M135.271 300.000 C 135.271 300.713,135.347 301.005,135.440 300.648 C 135.534 300.292,135.534 299.708,135.440 299.352 C 135.347 298.995,135.271 299.287,135.271 300.000 M111.205 302.778 C 111.209 303.593,111.284 303.882,111.373 303.422 C 111.462 302.961,111.458 302.294,111.366 301.940 C 111.273 301.586,111.200 301.963,111.205 302.778 M150.827 302.593 C 150.827 303.306,150.903 303.597,150.996 303.241 C 151.089 302.884,151.089 302.301,150.996 301.944 C 150.903 301.588,150.827 301.880,150.827 302.593 M96.012 304.815 C 96.012 305.528,96.088 305.819,96.181 305.463 C 96.274 305.106,96.274 304.523,96.181 304.167 C 96.088 303.810,96.012 304.102,96.012 304.815 M135.649 306.852 C 135.653 307.667,135.729 307.956,135.818 307.496 C 135.906 307.035,135.903 306.368,135.810 306.014 C 135.717 305.660,135.645 306.037,135.649 306.852 M151.197 309.259 C 151.197 309.972,151.273 310.264,151.366 309.907 C 151.460 309.551,151.460 308.968,151.366 308.611 C 151.273 308.255,151.197 308.546,151.197 309.259 M110.834 309.815 C 110.838 310.630,110.914 310.919,111.003 310.459 C 111.091 309.998,111.088 309.331,110.995 308.977 C 110.903 308.623,110.830 309.000,110.834 309.815 M95.641 311.852 C 95.641 312.565,95.718 312.856,95.811 312.500 C 95.904 312.144,95.904 311.560,95.811 311.204 C 95.718 310.847,95.641 311.139,95.641 311.852 M136.012 313.704 C 136.012 314.417,136.088 314.708,136.181 314.352 C 136.274 313.995,136.274 313.412,136.181 313.056 C 136.088 312.699,136.012 312.991,136.012 313.704 M86.032 316.481 C 86.035 317.500,86.107 317.873,86.192 317.310 C 86.277 316.747,86.275 315.913,86.187 315.458 C 86.099 315.002,86.029 315.463,86.032 316.481 M110.464 316.852 C 110.468 317.667,110.544 317.956,110.632 317.496 C 110.721 317.035,110.718 316.368,110.625 316.014 C 110.532 315.660,110.460 316.037,110.464 316.852 M70.883 318.312 C 70.770 318.605,70.756 319.147,70.852 319.515 C 70.969 319.967,71.039 319.863,71.068 319.198 C 71.092 318.654,71.319 318.126,71.574 318.023 C 71.937 317.877,71.934 317.830,71.562 317.807 C 71.301 317.791,70.996 318.018,70.883 318.312 M95.271 318.889 C 95.271 319.602,95.347 319.894,95.440 319.537 C 95.534 319.181,95.534 318.597,95.440 318.241 C 95.347 317.884,95.271 318.176,95.271 318.889 M116.381 328.210 C 116.318 333.922,116.179 335.912,115.833 336.051 C 115.471 336.197,115.473 336.244,115.845 336.267 C 116.629 336.315,116.687 335.654,116.574 327.953 L 116.465 320.556 116.381 328.210 M88.675 334.259 C 88.676 338.537,88.730 340.236,88.795 338.035 C 88.861 335.835,88.860 332.335,88.795 330.258 C 88.729 328.181,88.675 329.981,88.675 334.259 " stroke="none" fill="#935064" fill-rule="evenodd"></path><path id="path5" d="M287.407 67.153 C 287.407 67.217,287.949 67.758,288.611 68.357 L 289.815 69.444 288.727 68.241 C 287.713 67.119,287.407 66.867,287.407 67.153 M199.063 103.333 C 199.063 116.269,199.110 121.560,199.166 115.093 C 199.223 108.625,199.223 98.042,199.166 91.574 C 199.110 85.106,199.063 90.398,199.063 103.333 M294.196 83.148 C 294.197 84.574,294.264 85.112,294.344 84.344 C 294.425 83.575,294.423 82.408,294.341 81.751 C 294.260 81.094,294.194 81.722,294.196 83.148 M250.476 92.407 C 250.479 93.426,250.551 93.799,250.636 93.236 C 250.721 92.673,250.719 91.839,250.631 91.384 C 250.543 90.928,250.474 91.389,250.476 92.407 M144.248 115.000 C 144.248 127.833,144.295 133.030,144.352 126.547 C 144.408 120.065,144.408 109.565,144.352 103.214 C 144.295 96.863,144.248 102.167,144.248 115.000 M89.434 126.667 C 89.434 139.398,89.480 144.606,89.537 138.241 C 89.594 131.875,89.594 121.458,89.537 115.093 C 89.480 108.727,89.434 113.935,89.434 126.667 M370.534 241.667 C 370.534 247.778,370.585 250.330,370.647 247.338 C 370.709 244.346,370.710 239.346,370.648 236.227 C 370.586 233.108,370.535 235.556,370.534 241.667 " stroke="none" fill="#a47c66" fill-rule="evenodd"></path><path id="path6" d="M33.508 138.519 C 33.508 151.250,33.554 156.458,33.611 150.093 C 33.668 143.727,33.668 133.310,33.611 126.944 C 33.554 120.579,33.508 125.787,33.508 138.519 " stroke="none" fill="#614464" fill-rule="evenodd"></path><path id="path7" d="M284.606 105.278 L 283.519 106.481 284.722 105.394 C 285.384 104.795,285.926 104.254,285.926 104.190 C 285.926 103.904,285.620 104.156,284.606 105.278 M39.063 137.407 C 39.063 150.139,39.110 155.347,39.166 148.981 C 39.223 142.616,39.223 132.199,39.166 125.833 C 39.110 119.468,39.063 124.676,39.063 137.407 " stroke="none" fill="#7c5c64" fill-rule="evenodd"></path><path id="path8" d="M361.291 104.074 C 361.291 131.472,361.335 142.681,361.389 128.981 C 361.443 115.282,361.443 92.866,361.389 79.167 C 361.335 65.468,361.291 76.676,361.291 104.074 M293.120 124.630 C 293.120 128.907,293.174 130.607,293.240 128.406 C 293.305 126.205,293.305 122.705,293.239 120.628 C 293.173 118.551,293.119 120.352,293.120 124.630 M227.564 138.333 C 227.564 142.611,227.618 144.310,227.684 142.109 C 227.750 139.909,227.749 136.409,227.683 134.332 C 227.618 132.255,227.564 134.056,227.564 138.333 M161.638 152.407 C 161.639 156.685,161.692 158.384,161.758 156.184 C 161.824 153.983,161.823 150.483,161.758 148.406 C 161.692 146.329,161.638 148.130,161.638 152.407 M292.962 290.851 L 293.147 298.704 293.248 291.138 C 293.304 286.976,293.221 283.442,293.063 283.285 C 292.906 283.127,292.861 286.532,292.962 290.851 M227.564 304.815 C 227.564 308.991,227.618 310.699,227.684 308.611 C 227.750 306.523,227.750 303.106,227.684 301.019 C 227.618 298.931,227.564 300.639,227.564 304.815 M161.647 311.214 C 161.547 311.475,161.511 315.016,161.567 319.085 L 161.668 326.481 161.853 318.611 C 162.033 310.899,162.015 310.254,161.647 311.214 M157.934 319.630 C 157.934 323.806,157.988 325.514,158.054 323.426 C 158.120 321.338,158.120 317.921,158.054 315.833 C 157.988 313.745,157.934 315.454,157.934 319.630 " stroke="none" fill="#643c64" fill-rule="evenodd"></path></g></svg>