<svg xmlns="http://www.w3.org/2000/svg" viewBox="0 0 634.65 593.76"><defs><style>.a{fill:#fff;}</style></defs><path d="M591.19,476.45,43.46,592.78C19.46,597.88,0,582.56,0,558.56V170c0-24,19.46-47.6,43.46-52.7L591.19,1c24-5.1,43.46,10.22,43.46,34.22V423.75C634.65,447.76,615.2,471.35,591.19,476.45Z" transform="translate(0 0)"/><path class="a" d="M588.3,221.58c.05-.56.08-1.11.08-1.65V63.75c0-9.9-8.06-16.25-18-14.14L535,57.13A22.91,22.91,0,0,0,522.45,65h0l-.11.13,0,0-13.22,16L493.92,99.53a24.52,24.52,0,0,0-5.86,15.41V266.11l0,.27v.27l0,.34,0,.35,8.47,85.28c.69,7,5,11.9,11.06,13.6L494,382.83a24.71,24.71,0,0,0-5.92,15.55v30.54c0,11.15,9.06,18.29,20.21,15.92l32.3-6.87a25.7,25.7,0,0,0,14.29-9l15.26-18.49,13-15.74h0a22.22,22.22,0,0,0,5.31-13.92V347c0-10-8.13-16.4-18.12-14.27l-6.45,1.37,10.9-13.22c.12-.13.22-.27.33-.4l1-1.19H576a22.25,22.25,0,0,0,4.6-11.37Zm-18,125.62a2.88,2.88,0,0,1,3.67,2.9v33.83a4.8,4.8,0,0,1-3.67,4.46l-34.93,7.42a2.89,2.89,0,0,1-3.68-2.9V359.08a4.79,4.79,0,0,1,3.68-4.45ZM573.93,223c0,.11,0,.21,0,.32l-7.74,86.36a4.64,4.64,0,0,1-3.51,3.95l-19.92,4.23a2.76,2.76,0,0,1-3.51-2.45l-7.73-83.07c0-.11,0-.21,0-.32V75.85A4.59,4.59,0,0,1,535,71.58l35.4-7.53a2.76,2.76,0,0,1,3.52,2.78Z" transform="translate(0 0)"/><path class="a" d="M57.21,238.94a5.54,5.54,0,0,0,4.25-5.16V162a3.34,3.34,0,0,0-4.25-3.35A5.55,5.55,0,0,0,53,163.85v71.74A3.34,3.34,0,0,0,57.21,238.94Z" transform="translate(0 0)"/><path class="a" d="M69.12,200.54l35.05-7.45a5.54,5.54,0,0,0,4.25-5.16,3.34,3.34,0,0,0-4.25-3.35l-35,7.45a5.55,5.55,0,0,0-4.25,5.16A3.34,3.34,0,0,0,69.12,200.54Z" transform="translate(0 0)"/><path class="a" d="M116.08,226.43a5.55,5.55,0,0,0,4.26-5.16V149.53a3.34,3.34,0,0,0-4.26-3.35,5.55,5.55,0,0,0-4.25,5.16v71.74A3.34,3.34,0,0,0,116.08,226.43Z" transform="translate(0 0)"/><path class="a" d="M145.85,220.1l58.88-12.51a5.55,5.55,0,0,0,4.25-5.16,3.34,3.34,0,0,0-4.25-3.35L150.1,210.69V183.33L177,177.62a5.55,5.55,0,0,0,4.25-5.16,3.34,3.34,0,0,0-4.25-3.35l-26.85,5.71V147.46l54.63-11.62a5.53,5.53,0,0,0,4.25-5.15,3.34,3.34,0,0,0-4.25-3.35l-58.88,12.51a5.55,5.55,0,0,0-4.26,5.16v71.74A3.34,3.34,0,0,0,145.85,220.1Z" transform="translate(0 0)"/><path class="a" d="M232.91,201.59l58.88-12.51a5.54,5.54,0,0,0,4.25-5.16,3.34,3.34,0,0,0-4.25-3.35l-54.63,11.61V124.7a3.34,3.34,0,0,0-4.25-3.35,5.53,5.53,0,0,0-4.25,5.15v71.75A3.33,3.33,0,0,0,232.91,201.59Z" transform="translate(0 0)"/><path class="a" d="M320,183.09l2.92-.62h0l7.4-1.57h0l48.56-10.33a5.53,5.53,0,0,0,4.25-5.15,3.33,3.33,0,0,0-4.25-3.35l-48.56,10.32h0l-2.39.51-3.67.78V106.19a3.34,3.34,0,0,0-4.26-3.35,5.54,5.54,0,0,0-4.25,5.16v71.74A3.34,3.34,0,0,0,320,183.09Z" transform="translate(0 0)"/><path class="a" d="M428.2,160.09c21.52-4.58,39-26.3,39-48.43s-17.52-36.4-39-31.82-39.05,26.3-39.05,48.42S406.67,164.66,428.2,160.09Zm0-71.74C445,84.77,458.73,96,458.73,113.47S445,148,428.2,151.58s-30.54-7.69-30.54-25.13S411.36,91.92,428.2,88.35Z" transform="translate(0 0)"/><path class="a" d="M112.19,244.33a38.3,38.3,0,0,0-17.54-.19c-22.27,4.73-40.47,26.16-41.59,48.4l-.11,0V502.07l.11,0c1.12,21.75,19.32,35.45,41.59,30.71,23-4.89,41.7-27.56,41.7-50.55v-2.14l-24.16,5.13v2.14c0,9.67-7.87,19.21-17.54,21.27s-17.54-4.14-17.54-13.81V289.56c0-9.67,7.87-19.21,17.54-21.27s17.54,4.14,17.54,13.81v2.14l24.16-5.13V235.27l-24.16,5.14Z" transform="translate(0 0)"/><polygon class="a" points="455.17 167.5 443.1 170.07 421.08 174.75 421.08 198.91 431.02 196.79 431.02 342.44 395.54 182.09 395.54 180.18 395.13 180.27 395.05 179.88 393.17 180.68 371.38 185.31 371.38 185.31 361.44 187.43 361.44 211.58 371.38 209.47 371.38 449.79 361.44 451.9 361.44 476.05 405.47 466.69 405.47 442.54 395.54 444.65 395.54 298.91 431.45 461.17 465.11 454.02 465.11 429.87 455.17 431.98 455.17 191.66 465.11 189.55 465.11 165.39 455.17 167.5 455.17 167.5"/><path class="a" d="M227.44,240.07l12.88-2.74V213.17l-89.9,19.11v24.16l12.88-2.74-12.76,243-10,2.14V523l44-9.36V489.51l-9.82,2.08,3.23-61.48,34.89-7.41,3.23,60.11-9.83,2.08v24.16l44-9.36V475.54l-10,2.13ZM211.53,398.81l-32.32,6.87,8.25-157.12,15.82-3.36Z" transform="translate(0 0)"/><polygon class="a" points="256.68 209.69 256.68 233.85 266.62 231.74 266.62 231.74 266.62 387.1 266.62 411.26 266.62 472.06 256.68 474.17 256.68 498.32 350.42 478.4 350.42 478.3 350.42 454.25 350.42 434.47 326.26 439.6 326.26 459.38 290.78 466.92 290.78 406.13 330.54 397.67 330.54 373.52 290.78 381.97 290.78 226.6 326.26 219.06 326.26 238.74 350.42 233.61 350.42 189.77 256.68 209.69"/></svg>