<svg xmlns="http://www.w3.org/2000/svg" xmlns:xlink="http://www.w3.org/1999/xlink" width="887.591" height="794.699" viewBox="0 0 887.591 794.699"><defs><linearGradient id="a" x1="0.5" y1="1" x2="0.5" gradientUnits="objectBoundingBox"><stop offset="0" stop-color="gray" stop-opacity="0.4"/><stop offset="0.535" stop-color="gray" stop-opacity="0.122"/><stop offset="1" stop-color="gray" stop-opacity="0.102"/></linearGradient><linearGradient id="d" x1="0.5" y1="1" x2="0.5" gradientUnits="objectBoundingBox"><stop offset="0" stop-color="#b3b3b3" stop-opacity="0.251"/><stop offset="0.535" stop-color="#b3b3b3" stop-opacity="0.102"/><stop offset="1" stop-color="#b3b3b3" stop-opacity="0.051"/></linearGradient><linearGradient id="e" x1="0.5" y1="1" x2="0.5" gradientUnits="objectBoundingBox"><stop offset="0" stop-opacity="0.122"/><stop offset="0.551" stop-opacity="0.09"/><stop offset="1" stop-opacity="0.02"/></linearGradient><linearGradient id="g" x1="0.5" y1="1" x2="0.5" gradientUnits="objectBoundingBox"><stop offset="0.005" stop-opacity="0.122"/><stop offset="0.551" stop-opacity="0.09"/><stop offset="1" stop-opacity="0.051"/></linearGradient></defs><g transform="translate(0 0)"><path d="M297.81,766.722,0,794.7V93.611L297.81,65.634Z" fill="url(#a)"/><path d="M297.81,766.722,595.621,794.7V93.611L297.81,65.634Z" fill="url(#a)"/><path d="M887.591,766.722,595.621,794.7V93.611l291.97-27.977Z" fill="url(#a)"/><path d="M298.865,747.261,9.488,774.143V100.511L298.865,73.629Z" fill="#f2eaea"/><path d="M298.865,747.261l289.377,26.882V100.511L298.865,73.629Z" fill="#fff"/><path d="M877.618,747.261,588.242,774.143V100.511L877.618,73.629Z" fill="#f2eaea"/><path d="M298.865,135.494l-219.8,7.712v101.2H265.657V207.817l33.208-1.165,50.6,15.619V151.113Z" fill="#fabb6b" opacity="0.3"/><path d="M298.865,701.4,52.183,725.123V634.989l246.682-23.72Z" fill="#fabb6b" opacity="0.3"/><path d="M271.865,422.4,25.183,446.123V355.989l246.682-23.72Z" fill="#fabb6b" opacity="0.3"/><rect width="107.528" height="82.227" transform="translate(444.344 631.826)" fill="#fabb6b" opacity="0.3"/><rect width="107.528" height="82.227" transform="translate(409.344 438.826)" fill="#fabb6b" opacity="0.3"/><rect width="107.528" height="82.227" transform="translate(453.344 181.826)" fill="#fabb6b" opacity="0.3"/><path d="M836.505,676.1,668.888,690.334V581.225l167.617-14.232Z" fill="#fabb6b" opacity="0.3"/><path d="M816.505,292.1,648.888,306.334V197.225l167.617-14.232Z" fill="#fabb6b" opacity="0.3"/><path d="M958.282,142.038c0,39.119-68.382,149.9-68.382,149.9s-68.382-110.78-68.382-149.9S852.134,71.206,889.9,71.206,958.282,102.919,958.282,142.038Z" transform="translate(-156.205 -52.65)" fill="url(#d)"/><ellipse cx="20.674" cy="21.414" rx="20.674" ry="21.414" transform="translate(713.021 63.032)" fill="url(#e)"/><path d="M953.177,142.165c0,34.947-63.277,133.912-63.277,133.912s-63.277-98.965-63.277-133.912a63.277,63.277,0,1,1,126.554,0Z" transform="translate(-156.205 -52.65)" fill="#eb6265"/><circle cx="19.13" cy="19.13" r="19.13" transform="translate(714.565 65.97)" fill="#fff"/><path d="M381.558,585.322c0,39.4-70.411,150.959-70.411,150.959s-70.411-111.563-70.411-150.959,31.524-71.332,70.411-71.332S381.558,545.926,381.558,585.322Z" transform="translate(-156.205 -52.65)" fill="url(#d)"/><ellipse cx="21.287" cy="21.566" rx="21.287" ry="21.566" transform="translate(133.654 506.129)" fill="url(#g)"/><path d="M374.423,584.927c0,34.947-63.277,133.912-63.277,133.912s-63.277-98.965-63.277-133.912a63.277,63.277,0,1,1,126.554,0Z" transform="translate(-156.205 -52.65)" fill="#eb6265"/><circle cx="19.13" cy="19.13" r="19.13" transform="translate(135.811 508.732)" fill="#fff"/><path d="M717.423,589.927c0,34.947-63.277,133.912-63.277,133.912s-63.277-98.965-63.277-133.912a63.277,63.277,0,1,1,126.554,0Z" transform="translate(-156.205 -52.65)" fill="#eb6265"/><circle cx="19.13" cy="19.13" r="19.13" transform="translate(478.811 513.732)" fill="#fff"/><path d="M965.423,549.927c0,34.947-63.277,133.912-63.277,133.912s-63.277-98.965-63.277-133.912a63.277,63.277,0,1,1,126.554,0Z" transform="translate(-156.205 -52.65)" fill="#eb6265"/><circle cx="19.13" cy="19.13" r="19.13" transform="translate(726.811 473.732)" fill="#fff"/><path d="M406.423,115.927c0,34.947-63.277,133.912-63.277,133.912s-63.277-98.965-63.277-133.912a63.277,63.277,0,1,1,126.554,0Z" transform="translate(-156.205 -52.65)" fill="#eb6265"/><circle cx="19.13" cy="19.13" r="19.13" transform="translate(167.811 39.732)" fill="#fff"/></g></svg>