<svg xmlns="http://www.w3.org/2000/svg" xmlns:xlink="http://www.w3.org/1999/xlink" width="825" height="674.337" viewBox="0 0 825 674.337"><defs><linearGradient id="a" x1="0.5" y1="1" x2="0.5" gradientUnits="objectBoundingBox"><stop offset="0" stop-color="gray" stop-opacity="0.4"/><stop offset="0.535" stop-color="gray" stop-opacity="0.122"/><stop offset="1" stop-color="gray" stop-opacity="0.102"/></linearGradient><clipPath id="b"><path d="M889.286,734.556H724.7L473.645,758.825l-253-24.269V139.96l251.952,18.2,257.393-18.2,251.8,34.381V641.525Z" transform="translate(-64.549 -7.924)" fill="#6c63ff"/></clipPath><linearGradient id="c" x1="0.5" y1="1" x2="0.5" gradientUnits="objectBoundingBox"><stop offset="0" stop-opacity="0.122"/><stop offset="0.551" stop-opacity="0.09"/><stop offset="1" stop-opacity="0.02"/></linearGradient></defs><g transform="translate(-122.951 -104.907)"><path d="M829.064,752.8H669.3L397.178,779.244,122.951,752.8V104.907l273.09,19.833,278.988-19.833L947.951,142.37l-7.006,497.539Z" fill="url(#a)"/><path d="M823.856,743.794H667.586l-266.168,25.73L133.19,743.794V113.412l267.116,19.3,272.884-19.3,266.952,36.451-6.853,484.092Z" fill="#fff"/><path d="M824.736,726.631H660.154L409.1,750.9l-253-24.27v-594.6l251.952,18.2,257.393-18.2,251.8,34.382V633.6Z" fill="#fabb6b"/><g clip-path="url(#b)"><path d="M1142.05,905.143,564.089,585.083l146.8-487.751L660.931,77.52,589.788,313.893,22.967,0,0,54.646,572.409,371.634,441.726,805.828l49.96,19.812L546.71,642.823l572.37,316.966Z" fill="#fff"/></g><path d="M813.083,742.811l1.936-122.735,118.27,4.771Z" fill="url(#c)"/><path d="M156.1,388.993,518.844,549.6l24.107,49.971-24,25L156.1,452.489Z" fill="#fff"/><path d="M823.856,742.811l1.762-113.256,107.671,4.4Z" fill="#fff"/><path d="M648.951,647.576,800.309,150.451l60.21,8.221-169.568,514.9Z" fill="#fff"/><path d="M408.047,750.9,660,726.631v-594.6l-251.952,18.2" opacity="0.1"/><path d="M703.348,356.36c0,48.029-86.965,184.042-86.965,184.042S529.419,404.39,529.419,356.36a86.965,86.965,0,1,1,173.929,0Z" transform="translate(-64.549 -7.924)" fill="#eb6265"/><circle cx="26.292" cy="26.292" r="26.292" transform="translate(525.542 316.077)" fill="#fff"/><path d="M784.67,388.993l132.567,34.016v63.5L754.951,428.576Z" fill="#fff"/><path d="M279.434,510.983,245.951,742.576l38,8,50.059-213.71-.059-30.29Z" fill="#fff"/><path d="M278.084,208.643l-37.57,217.728,29.09,15.7,69.347-233.5Z" fill="#fff"/><circle cx="8" cy="8" r="8" transform="translate(341.951 157.576)" fill="#643865"/><path d="M8,0A8,8,0,1,1,0,8,8,8,0,0,1,8,0Z" transform="translate(245.951 571.576)" fill="#643865"/><path d="M8,0A8,8,0,1,1,0,8,8,8,0,0,1,8,0Z" transform="translate(237.951 630.576)" fill="#643865"/><path d="M8,0A8,8,0,1,1,0,8,8,8,0,0,1,8,0Z" transform="translate(322.951 616.576)" fill="#643865"/><circle cx="8" cy="8" r="8" transform="translate(185.951 376.576)" fill="#643865"/><path d="M8,0A8,8,0,1,1,0,8,8,8,0,0,1,8,0Z" transform="translate(815.951 368.576)" fill="#643865"/><path d="M8,0A8,8,0,1,1,0,8,8,8,0,0,1,8,0Z" transform="translate(746.951 646.576)" fill="#643865"/></g></svg>