<svg xmlns="http://www.w3.org/2000/svg" width="148" height="148"  stroke="none" stroke-linecap="round" stroke-linejoin="round" fill="#fff" fill-rule="evenodd"><path d="M138.857292 146.91465c4.449356 0 8.057358-3.608032 8.057358-8.059216V8.972016c0-4.451176-3.608002-8.057366-8.057358-8.057366H8.97203c-4.451183 0-8.05738 3.6062-8.05738 8.057366V138.85726c0 4.449357 3.606196 8.05739 8.05738 8.05739h129.885263z" fill="#3c5a99"/><path d="M99.86249 146.772313V89.814046h18.834027l2.819616-22.197476H99.86249V53.443616c0-6.424002 1.757494-10.803994 10.835027-10.803994l11.57782-.00548V22.778136c-2.002024-.270097-8.874966-.875995-16.87214-.875995-16.693263 0-28.104993 10.34411-28.104993 29.34235v16.370253h-18.89606V89.81222h18.881472v56.958267h22.58073z"/></svg>